<svg width="58" height="49" viewBox="0 0 58 49" fill="none" xmlns="http://www.w3.org/2000/svg">
<g clip-path="url(#clip0_1_48)">
<path d="M52.016 11.4844V37.5156C52.016 37.7731 52.0227 38.0272 52.0429 38.2812C52.0765 38.7759 52.1369 39.2603 52.2276 39.738C52.2309 39.7515 52.2343 39.7685 52.2376 39.782C52.2645 39.9277 52.2981 40.07 52.3283 40.2122C52.3518 40.3139 52.3753 40.4121 52.4022 40.5104C52.4156 40.5747 52.4358 40.6357 52.4525 40.6967C52.5029 40.8796 52.5634 41.0626 52.6238 41.2421C52.6507 41.3268 52.6775 41.4081 52.7111 41.4928C52.7447 41.5877 52.7816 41.6791 52.8186 41.774C52.8555 41.8655 52.8924 41.9603 52.9327 42.0518C53.0771 42.3906 53.2349 42.7226 53.4062 43.0444C53.4398 43.1088 53.4767 43.1731 53.5136 43.2375C53.6748 43.5254 53.8494 43.8032 54.0307 44.0709C54.0744 44.1386 54.1214 44.203 54.1684 44.2673C54.202 44.3148 54.2356 44.3622 54.2725 44.4096C54.3632 44.535 54.4572 44.6569 54.5546 44.7789C54.6016 44.8399 54.6486 44.8975 54.7023 44.9585C54.8366 45.1177 54.9709 45.2769 55.1153 45.4293C55.1858 45.5039 55.2563 45.5784 55.3269 45.6529C55.3873 45.7139 55.4477 45.7749 55.5115 45.8359C55.5485 45.8731 55.5888 45.9104 55.6257 45.9443C55.6895 46.0086 55.7533 46.0662 55.8171 46.1272C55.9246 46.2221 56.032 46.3169 56.1428 46.4084C56.257 46.5066 56.3779 46.5981 56.4954 46.6896C56.5458 46.7302 56.5961 46.7675 56.6465 46.8048C56.6599 46.8149 56.6767 46.8251 56.6901 46.8386C56.7439 46.8793 56.8043 46.9199 56.858 46.9606C56.9185 47.0046 56.9789 47.0453 57.0394 47.0825C57.0427 47.0859 57.0494 47.0893 57.0561 47.0961C57.1166 47.1368 57.1737 47.174 57.2341 47.2113C57.2845 47.2452 57.3382 47.279 57.3886 47.3095C57.4524 47.3502 57.5162 47.3908 57.5833 47.4281C57.5934 47.4349 57.6068 47.4416 57.6203 47.4518C57.7445 47.5263 57.8721 47.5975 58.0031 47.6686V48.9966H34.0684V47.6652C34.1926 47.5975 34.3168 47.5263 34.4411 47.4518C34.4847 47.4281 34.5217 47.4044 34.5653 47.3773C35.1664 47.0148 35.7271 46.5947 36.2476 46.1238C36.3148 46.0628 36.3752 46.0053 36.4424 45.9409C36.4894 45.8968 36.5364 45.8528 36.5834 45.8054C36.6203 45.7715 36.6505 45.741 36.6875 45.7071C36.6942 45.697 36.7009 45.6936 36.7076 45.6834C36.7345 45.6563 36.758 45.6326 36.7849 45.6021C36.852 45.5344 36.9158 45.4666 36.983 45.3955C36.9897 45.3887 36.993 45.3819 36.9998 45.3751C37.0233 45.3514 37.0434 45.3277 37.0669 45.304C37.0904 45.2769 37.1106 45.2532 37.1341 45.2295C37.1408 45.2261 37.1441 45.2227 37.1475 45.2159C37.1844 45.1753 37.2214 45.1346 37.255 45.094C37.3154 45.0262 37.3691 44.9618 37.4228 44.8941C37.4967 44.806 37.5672 44.7145 37.6377 44.6264C37.6915 44.5553 37.7486 44.4842 37.8023 44.4096C37.8258 44.3791 37.8493 44.3453 37.8694 44.3148C37.9265 44.2335 37.9836 44.1522 38.0407 44.0709C38.2254 43.7998 38.3966 43.5221 38.5578 43.2341C38.5981 43.1596 38.6384 43.0884 38.6787 43.0139C38.9675 42.4719 39.2159 41.9061 39.4208 41.32C39.5987 40.8051 39.7398 40.2698 39.8405 39.7244C39.8841 39.5076 39.9211 39.2874 39.9513 39.0638C39.9849 38.803 40.0117 38.5387 40.0285 38.2745C40.0453 38.0204 40.0554 37.7663 40.0554 37.5089V11.4844C40.0554 9.39754 40.5994 7.43944 41.5496 5.75235C41.7276 5.43729 41.919 5.1324 42.1238 4.83428C42.1943 4.73265 42.2649 4.6344 42.3454 4.53277C42.4865 4.33967 42.6376 4.14996 42.792 3.97041C43.6046 3.00491 44.575 2.18169 45.6596 1.54141C45.7839 1.46688 45.9115 1.39574 46.0391 1.3246C46.5192 1.06374 47.0196 0.840155 47.5367 0.65383C47.5367 0.65383 47.54 0.650443 47.5434 0.650443C48.178 0.420078 48.8361 0.247304 49.5178 0.138897C50.092 0.0474284 50.6796 -0.00338745 51.2773 -0.00338745H58.0098V1.3246C57.8822 1.39235 57.7546 1.4635 57.6303 1.54141C57.5061 1.61594 57.3852 1.68709 57.2643 1.76839C56.3275 2.37141 55.4813 3.1167 54.7627 3.97041C54.6083 4.15335 54.4605 4.33967 54.3161 4.53277C54.2389 4.6344 54.1684 4.73265 54.0979 4.83428C53.8931 5.1324 53.6983 5.43391 53.5237 5.75235C52.5701 7.43944 52.0295 9.39415 52.0295 11.4844" fill="#EFEFEF"/>
<path d="M12.1554 46.7538C12.1151 46.7335 12.0748 46.7098 12.0345 46.6861C11.9942 46.6624 11.9539 46.642 11.9136 46.6149C11.9942 46.6624 12.0748 46.7064 12.1554 46.7538ZM20.9429 17.1485L16.9537 12.2499L14.9592 9.80058L8.97551 2.44922L7.48127 0.609687L6.98431 -0.00349045H0V1.3245C0.127598 1.39225 0.255196 1.46339 0.382794 1.54131C2.08522 2.55085 3.50223 4.00757 4.48608 5.74886C5.43635 7.43595 5.98367 9.39405 5.98367 11.4809V37.5121C5.98367 37.7696 5.97696 38.0237 5.95681 38.2778C5.91652 38.9316 5.81914 39.5651 5.67475 40.185C5.58409 40.5712 5.47664 40.9507 5.34904 41.3233C5.11735 41.9907 4.82858 42.631 4.48608 43.2374C3.87495 44.3248 3.09257 45.3005 2.17924 46.1237C1.65877 46.5946 1.09466 47.0181 0.496961 47.3772C0.456666 47.4043 0.416372 47.428 0.37272 47.4517C0.24848 47.5262 0.127598 47.5974 0 47.6651V48.9965H14.9592V47.6685C14.8316 47.5974 14.7006 47.5262 14.5764 47.4517C14.5764 47.4517 14.5764 47.4517 14.573 47.4517C14.563 47.4449 14.5495 47.4382 14.5395 47.4314C14.4757 47.3941 14.4119 47.3535 14.3447 47.3128C14.2943 47.2789 14.2406 47.2484 14.1902 47.2146C14.1298 47.1773 14.0694 47.1367 14.0123 47.096C14.0056 47.0926 14.0022 47.0892 13.9955 47.0858C13.935 47.0452 13.8746 47.0045 13.8142 46.9605C13.7571 46.9232 13.7 46.8792 13.6463 46.8385C13.6328 46.8284 13.616 46.8148 13.6026 46.8047C13.5522 46.764 13.5019 46.7267 13.4515 46.6895C13.3306 46.598 13.2131 46.5031 13.0989 46.4083C12.9881 46.3168 12.8807 46.222 12.7766 46.1271C12.7128 46.0661 12.649 46.0085 12.5852 45.9476C12.5617 45.9272 12.5382 45.9069 12.5147 45.8798C12.5012 45.8662 12.4845 45.8493 12.471 45.8358C12.4106 45.7748 12.3501 45.7172 12.2897 45.6528C12.2192 45.5783 12.1453 45.5038 12.0748 45.4292C11.9304 45.2768 11.7961 45.121 11.6618 44.9617C11.6114 44.9008 11.5644 44.8432 11.514 44.7822C11.4167 44.6602 11.3226 44.5383 11.232 44.4129C11.1984 44.3655 11.1615 44.3181 11.1279 44.2706C11.0809 44.2063 11.0339 44.1385 10.9902 44.0742C10.8089 43.8065 10.6343 43.5287 10.4731 43.2408C10.4362 43.1764 10.3992 43.112 10.3657 43.0477C10.2078 42.7529 10.0601 42.4514 9.92578 42.1398C9.91235 42.1127 9.90228 42.0856 9.88884 42.0551C9.85191 41.9636 9.81161 41.8721 9.77468 41.7773C9.73774 41.6824 9.7008 41.591 9.66723 41.4961C9.63701 41.4114 9.60678 41.3301 9.57992 41.2454C9.51612 41.0659 9.4624 40.8863 9.41203 40.7C9.39524 40.6356 9.37509 40.5746 9.36166 40.5137C9.3348 40.4154 9.30794 40.3138 9.28779 40.2121C9.25085 40.0699 9.22063 39.9276 9.19377 39.7819C9.19041 39.7684 9.18705 39.7514 9.1837 39.7379C9.1434 39.5177 9.10647 39.2975 9.07625 39.0739C9.04267 38.813 9.0158 38.5488 8.99902 38.2811C8.98223 38.0271 8.97215 37.773 8.97215 37.5155V17.1519L14.9558 24.4999L16.4534 26.3394L16.675 26.6104L16.7019 26.6443L17.0444 27.0644L17.4977 27.62L17.951 28.1756L18.0283 28.2704L18.1995 28.4805L19.4486 30.0117L19.4755 30.0456L21.1141 32.0545L22.4405 33.6874L23.9381 35.5269V20.8276L20.9462 17.1519L20.9429 17.1485Z" fill="#EFEFEF"/>
</g>
<defs>
<clipPath id="clip0_1_48">
<rect width="58" height="49" fill="white"/>
</clipPath>
</defs>
</svg>
